<svg version="1.1" xmlns="http://www.w3.org/2000/svg" viewBox="0 0 1050.909090909091 202.72727272727207" width="1050.909090909091" height="202.72727272727207">
  <!-- svg-source:excalidraw -->
  
  <defs>
    <style class="style-fonts">
      @font-face {
        font-family: "Virgil";
        src: url("https://excalidraw.com/Virgil.woff2");
      }
      @font-face {
        font-family: "Cascadia";
        src: url("https://excalidraw.com/Cascadia.woff2");
      }
    </style>
  </defs>
  <g stroke-linecap="round" transform="translate(10 14.54545454545405) rotate(0 140 89.09090909090901)"><path d="M7.86 8.16 C7.86 8.16, 7.86 8.16, 7.86 8.16 M7.86 8.16 C7.86 8.16, 7.86 8.16, 7.86 8.16 M3.66 19.09 C6.79 15.49, 9.92 11.89, 18.1 2.48 M3.66 19.09 C9.16 12.76, 14.66 6.44, 18.1 2.48 M2.75 26.24 C11.06 16.67, 19.38 7.1, 25.05 0.58 M2.75 26.24 C9.58 18.37, 16.42 10.51, 25.05 0.58 M2.48 32.64 C10.42 23.51, 18.35 14.39, 30.7 0.18 M2.48 32.64 C11.5 22.27, 20.51 11.9, 30.7 0.18 M2.88 38.28 C13.29 26.3, 23.7 14.32, 34.37 2.05 M2.88 38.28 C11.45 28.42, 20.02 18.56, 34.37 2.05 M2.62 44.68 C14.68 30.8, 26.75 16.92, 39.36 2.41 M2.62 44.68 C16.76 28.41, 30.9 12.14, 39.36 2.41 M2.36 51.07 C17.39 33.78, 32.42 16.48, 45 2.02 M2.36 51.07 C16.97 34.26, 31.59 17.44, 45 2.02 M2.75 56.72 C17.19 40.1, 31.63 23.49, 49.99 2.38 M2.75 56.72 C16.56 40.84, 30.36 24.95, 49.99 2.38 M2.49 63.11 C22.04 40.63, 41.59 18.14, 55.63 1.98 M2.49 63.11 C20.48 42.42, 38.47 21.72, 55.63 1.98 M2.23 69.51 C22.64 46.03, 43.05 22.55, 60.62 2.34 M2.23 69.51 C22.2 46.53, 42.18 23.56, 60.62 2.34 M2.62 75.16 C24.58 49.9, 46.53 24.64, 66.26 1.95 M2.62 75.16 C16.35 59.37, 30.07 43.58, 66.26 1.95 M2.36 81.55 C22.02 58.94, 41.67 36.34, 71.25 2.31 M2.36 81.55 C24.49 56.1, 46.61 30.65, 71.25 2.31 M2.1 87.95 C31.37 54.27, 60.65 20.6, 76.89 1.91 M2.1 87.95 C29.5 56.43, 56.9 24.91, 76.89 1.91 M2.49 93.59 C28.49 63.69, 54.48 33.79, 81.88 2.27 M2.49 93.59 C18.54 75.14, 34.58 56.69, 81.88 2.27 M2.23 99.99 C23.86 75.11, 45.49 50.23, 87.52 1.88 M2.23 99.99 C29.42 68.72, 56.6 37.45, 87.52 1.88 M2.63 105.64 C36.74 66.4, 70.85 27.16, 92.51 2.24 M2.63 105.64 C24.51 80.47, 46.39 55.3, 92.51 2.24 M2.37 112.03 C23.17 88.11, 43.96 64.18, 98.15 1.85 M2.37 112.03 C25.05 85.94, 47.72 59.85, 98.15 1.85 M2.1 118.43 C35.86 79.6, 69.62 40.77, 103.14 2.21 M2.1 118.43 C31.38 84.76, 60.65 51.09, 103.14 2.21 M2.5 124.07 C24.46 98.81, 46.43 73.54, 108.78 1.81 M2.5 124.07 C25.93 97.12, 49.36 70.16, 108.78 1.81 M2.24 130.47 C43.83 82.63, 85.42 34.79, 113.77 2.17 M2.24 130.47 C32.5 95.65, 62.77 60.84, 113.77 2.17 M1.98 136.87 C35.54 98.25, 69.11 59.64, 119.41 1.78 M1.98 136.87 C26.14 109.07, 50.3 81.28, 119.41 1.78 M2.37 142.51 C34.9 105.09, 67.44 67.66, 124.4 2.14 M2.37 142.51 C39.56 99.73, 76.76 56.94, 124.4 2.14 M2.77 148.16 C48.26 95.82, 93.76 43.48, 130.04 1.74 M2.77 148.16 C36.42 109.44, 70.08 70.72, 130.04 1.74 M1.85 155.31 C38.48 113.17, 75.11 71.04, 135.03 2.1 M1.85 155.31 C54.09 95.21, 106.34 35.1, 135.03 2.1 M2.24 160.95 C38.7 119.02, 75.15 77.08, 140.67 1.71 M2.24 160.95 C44.38 112.48, 86.51 64.01, 140.67 1.71 M4.61 164.33 C39.45 124.25, 74.29 84.17, 145.66 2.07 M4.61 164.33 C50.04 112.06, 95.48 59.79, 145.66 2.07 M6.97 167.71 C47.82 120.71, 88.68 73.71, 150.65 2.43 M6.97 167.71 C60.02 106.68, 113.07 45.65, 150.65 2.43 M9.33 171.09 C56.43 116.91, 103.53 62.73, 156.29 2.03 M9.33 171.09 C63.49 108.79, 117.64 46.49, 156.29 2.03 M12.35 173.71 C48.16 132.52, 83.97 91.32, 161.28 2.39 M12.35 173.71 C62.79 115.68, 113.24 57.66, 161.28 2.39 M15.37 176.34 C49.08 137.56, 82.79 98.78, 166.92 2 M15.37 176.34 C74.71 108.08, 134.04 39.82, 166.92 2 M19.7 177.45 C79.16 109.05, 138.62 40.64, 171.91 2.36 M19.7 177.45 C54.46 137.46, 89.22 97.47, 171.91 2.36 M24.69 177.81 C81.07 112.95, 137.45 48.09, 177.55 1.96 M24.69 177.81 C76.25 118.5, 127.81 59.18, 177.55 1.96 M29.67 178.17 C80.58 119.61, 131.49 61.04, 182.54 2.32 M29.67 178.17 C73.97 127.21, 118.27 76.25, 182.54 2.32 M34 179.29 C90.26 114.57, 146.51 49.86, 188.18 1.93 M34 179.29 C86.09 119.37, 138.17 59.46, 188.18 1.93 M38.99 179.65 C85.97 125.6, 132.95 71.56, 193.17 2.29 M38.99 179.65 C86.85 124.59, 134.72 69.53, 193.17 2.29 M43.98 180.01 C91.15 125.74, 138.32 71.47, 198.81 1.9 M43.98 180.01 C76.65 142.43, 109.31 104.85, 198.81 1.9 M49.62 179.61 C93.08 129.62, 136.54 79.63, 203.8 2.26 M49.62 179.61 C97.99 123.97, 146.35 68.33, 203.8 2.26 M54.61 179.97 C96.64 131.62, 138.67 83.27, 209.44 1.86 M54.61 179.97 C110.46 115.72, 166.32 51.47, 209.44 1.86 M60.25 179.58 C103.39 129.95, 146.53 80.33, 214.43 2.22 M60.25 179.58 C100.18 133.65, 140.1 87.72, 214.43 2.22 M65.24 179.94 C102.02 137.63, 138.79 95.32, 220.07 1.83 M65.24 179.94 C108.11 130.62, 150.98 81.31, 220.07 1.83 M70.88 179.54 C109.86 134.71, 148.83 89.88, 225.06 2.19 M70.88 179.54 C123.53 118.98, 176.18 58.41, 225.06 2.19 M75.87 179.9 C132.26 115.03, 188.66 50.15, 230.7 1.79 M75.87 179.9 C112.28 138.02, 148.69 96.14, 230.7 1.79 M81.51 179.51 C142.29 109.59, 203.08 39.66, 235.69 2.15 M81.51 179.51 C126.61 127.63, 171.7 75.75, 235.69 2.15 M86.5 179.87 C133.26 126.08, 180.01 72.29, 241.33 1.76 M86.5 179.87 C148.01 109.11, 209.52 38.35, 241.33 1.76 M92.14 179.47 C129.09 136.97, 166.03 94.47, 248.28 -0.15 M92.14 179.47 C135.73 129.33, 179.33 79.18, 248.28 -0.15 M97.13 179.83 C142.45 127.69, 187.78 75.55, 253.27 0.21 M97.13 179.83 C145.67 124, 194.2 68.16, 253.27 0.21 M102.77 179.44 C156.95 117.12, 211.12 54.8, 256.95 2.08 M102.77 179.44 C134.32 143.15, 165.87 106.86, 256.95 2.08 M107.76 179.8 C147.48 134.11, 187.2 88.41, 261.93 2.44 M107.76 179.8 C140.05 142.65, 172.35 105.5, 261.93 2.44 M113.4 179.4 C151.49 135.59, 189.58 91.78, 266.26 3.56 M113.4 179.4 C145.18 142.85, 176.95 106.3, 266.26 3.56 M118.39 179.77 C166.93 123.93, 215.46 68.1, 269.28 6.18 M118.39 179.77 C165.56 125.5, 212.74 71.23, 269.28 6.18 M124.03 179.37 C165.48 131.69, 206.93 84.01, 272.3 8.81 M124.03 179.37 C177.98 117.31, 231.93 55.25, 272.3 8.81 M129.02 179.73 C171.3 131.09, 213.59 82.45, 275.32 11.43 M129.02 179.73 C176.68 124.9, 224.34 70.07, 275.32 11.43 M134.66 179.34 C182.04 124.84, 229.41 70.34, 277.68 14.81 M134.66 179.34 C189.52 116.23, 244.38 53.12, 277.68 14.81 M139.65 179.7 C189.32 122.56, 238.99 65.42, 279.39 18.94 M139.65 179.7 C187.2 124.99, 234.76 70.29, 279.39 18.94 M145.29 179.3 C189.95 127.93, 234.6 76.56, 279.78 24.59 M145.29 179.3 C187.5 130.75, 229.7 82.2, 279.78 24.59 M150.28 179.66 C177 148.92, 203.73 118.18, 280.18 30.23 M150.28 179.66 C193.6 129.83, 236.92 79.99, 280.18 30.23 M155.27 180.02 C199.65 128.97, 244.03 77.91, 282.54 33.61 M155.27 180.02 C185.48 145.27, 215.69 110.52, 282.54 33.61 M160.91 179.63 C198.98 135.83, 237.06 92.03, 282.28 40.01 M160.91 179.63 C193.52 142.12, 226.12 104.61, 282.28 40.01 M165.9 179.99 C199.24 141.63, 232.59 103.27, 282.02 46.4 M165.9 179.99 C209.21 130.17, 252.52 80.34, 282.02 46.4 M171.54 179.59 C198.41 148.69, 225.27 117.78, 282.41 52.05 M171.54 179.59 C215.33 129.22, 259.12 78.84, 282.41 52.05 M176.53 179.95 C217.97 132.28, 259.41 84.61, 282.15 58.44 M176.53 179.95 C216.17 134.35, 255.81 88.75, 282.15 58.44 M182.17 179.56 C216.65 139.89, 251.13 100.23, 282.55 64.09 M182.17 179.56 C217.05 139.43, 251.94 99.3, 282.55 64.09 M187.16 179.92 C220.29 141.81, 253.42 103.7, 282.29 70.49 M187.16 179.92 C209.51 154.21, 231.85 128.5, 282.29 70.49 M192.8 179.52 C215.85 153.01, 238.9 126.49, 282.02 76.88 M192.8 179.52 C214.88 154.13, 236.95 128.73, 282.02 76.88 M197.79 179.88 C229.78 143.08, 261.77 106.28, 282.42 82.53 M197.79 179.88 C229.81 143.04, 261.84 106.2, 282.42 82.53 M203.43 179.49 C220.51 159.84, 237.59 140.19, 282.16 88.92 M203.43 179.49 C219.31 161.22, 235.19 142.96, 282.16 88.92 M208.42 179.85 C233.89 150.54, 259.37 121.23, 282.55 94.57 M208.42 179.85 C235.72 148.44, 263.02 117.04, 282.55 94.57 M214.06 179.45 C237.15 152.89, 260.24 126.33, 282.29 100.96 M214.06 179.45 C227.93 163.5, 241.79 147.55, 282.29 100.96 M219.05 179.81 C234.57 161.96, 250.09 144.1, 282.03 107.36 M219.05 179.81 C231.82 165.12, 244.59 150.43, 282.03 107.36 M224.69 179.42 C243.8 157.43, 262.92 135.45, 282.42 113.01 M224.69 179.42 C238.02 164.08, 251.36 148.74, 282.42 113.01 M229.68 179.78 C246.82 160.06, 263.97 140.33, 282.16 119.4 M229.68 179.78 C241.04 166.71, 252.4 153.64, 282.16 119.4 M235.32 179.39 C253.84 158.08, 272.36 136.77, 282.56 125.05 M235.32 179.39 C251.84 160.38, 268.36 141.38, 282.56 125.05 M240.31 179.75 C255.57 162.18, 270.84 144.62, 282.3 131.44 M240.31 179.75 C256.24 161.42, 272.18 143.09, 282.3 131.44 M245.95 179.35 C257.06 166.57, 268.17 153.79, 282.03 137.84 M245.95 179.35 C253.53 170.63, 261.12 161.91, 282.03 137.84 M250.28 180.47 C261.37 167.71, 272.46 154.95, 279.8 146.5 M250.28 180.47 C262.04 166.94, 273.79 153.42, 279.8 146.5 M257.24 178.56 C265.13 169.48, 273.03 160.4, 279.54 152.9 M257.24 178.56 C265.02 169.61, 272.81 160.65, 279.54 152.9 M263.54 177.41 C268.16 172.1, 272.78 166.78, 277.97 160.81 M263.54 177.41 C266.63 173.85, 269.73 170.29, 277.97 160.81" stroke="#ced4da" stroke-width="0.5" fill="none"></path><path d="M32 0 M32 0 C117.24 0, 202.48 0, 248 0 M32 0 C94.43 0, 156.87 0, 248 0 M248 0 C269.33 0, 280 10.67, 280 32 M248 0 C269.33 0, 280 10.67, 280 32 M280 32 C280 61.83, 280 91.67, 280 146.18 M280 32 C280 69.2, 280 106.39, 280 146.18 M280 146.18 C280 167.52, 269.33 178.18, 248 178.18 M280 146.18 C280 167.52, 269.33 178.18, 248 178.18 M248 178.18 C190.77 178.18, 133.55 178.18, 32 178.18 M248 178.18 C195.34 178.18, 142.67 178.18, 32 178.18 M32 178.18 C10.67 178.18, 0 167.52, 0 146.18 M32 178.18 C10.67 178.18, 0 167.52, 0 146.18 M0 146.18 C0 121.4, 0 96.62, 0 32 M0 146.18 C0 109.31, 0 72.45, 0 32 M0 32 C0 10.67, 10.67 0, 32 0 M0 32 C0 10.67, 10.67 0, 32 0" stroke="#000000" stroke-width="1" fill="none"></path></g><g transform="translate(115.5 81.88636363635851) rotate(0 34.5 21.5)"><text x="34.5" y="31" font-family="Virgil, Segoe UI Emoji" font-size="36px" fill="#000000" text-anchor="middle" style="white-space: pre;" direction="ltr">Dev</text></g><g stroke-linecap="round" transform="translate(381.818181818182 10) rotate(0 140 89.09090909090901)"><path d="M7.86 8.16 C7.86 8.16, 7.86 8.16, 7.86 8.16 M7.86 8.16 C7.86 8.16, 7.86 8.16, 7.86 8.16 M3.66 19.09 C8.9 13.06, 14.15 7.03, 18.1 2.48 M3.66 19.09 C8.38 13.66, 13.1 8.23, 18.1 2.48 M2.75 26.24 C11.28 16.42, 19.81 6.61, 25.05 0.58 M2.75 26.24 C7.49 20.78, 12.23 15.33, 25.05 0.58 M2.48 32.64 C8.18 26.08, 13.88 19.52, 30.7 0.18 M2.48 32.64 C8.43 25.8, 14.38 18.96, 30.7 0.18 M2.88 38.28 C10.2 29.85, 17.53 21.42, 34.37 2.05 M2.88 38.28 C13.23 26.37, 23.58 14.47, 34.37 2.05 M2.62 44.68 C14.55 30.95, 26.49 17.22, 39.36 2.41 M2.62 44.68 C16.18 29.07, 29.75 13.46, 39.36 2.41 M2.36 51.07 C16.11 35.25, 29.87 19.43, 45 2.02 M2.36 51.07 C16.38 34.95, 30.4 18.82, 45 2.02 M2.75 56.72 C17.66 39.57, 32.57 22.41, 49.99 2.38 M2.75 56.72 C16.59 40.8, 30.42 24.89, 49.99 2.38 M2.49 63.11 C23.39 39.07, 44.29 15.02, 55.63 1.98 M2.49 63.11 C14.93 48.81, 27.37 34.5, 55.63 1.98 M2.23 69.51 C19.59 49.54, 36.96 29.56, 60.62 2.34 M2.23 69.51 C20.22 48.81, 38.22 28.11, 60.62 2.34 M2.62 75.16 C26.49 47.7, 50.36 20.24, 66.26 1.95 M2.62 75.16 C18.63 56.74, 34.64 38.33, 66.26 1.95 M2.36 81.55 C18.36 63.15, 34.36 44.74, 71.25 2.31 M2.36 81.55 C21.49 59.55, 40.61 37.56, 71.25 2.31 M2.1 87.95 C23.55 63.27, 45.01 38.59, 76.89 1.91 M2.1 87.95 C22.6 64.37, 43.1 40.79, 76.89 1.91 M2.49 93.59 C20.08 73.37, 37.66 53.14, 81.88 2.27 M2.49 93.59 C26.28 66.24, 50.06 38.88, 81.88 2.27 M2.23 99.99 C30.97 66.93, 59.71 33.87, 87.52 1.88 M2.23 99.99 C34.7 62.65, 67.16 25.3, 87.52 1.88 M2.63 105.64 C21.08 84.41, 39.53 63.19, 92.51 2.24 M2.63 105.64 C21.37 84.08, 40.11 62.52, 92.51 2.24 M2.37 112.03 C23.7 87.5, 45.03 62.96, 98.15 1.85 M2.37 112.03 C34.55 75.01, 66.74 37.98, 98.15 1.85 M2.1 118.43 C28.67 87.87, 55.24 57.31, 103.14 2.21 M2.1 118.43 C29.85 86.52, 57.59 54.6, 103.14 2.21 M2.5 124.07 C26.98 95.91, 51.47 67.74, 108.78 1.81 M2.5 124.07 C33.42 88.5, 64.34 52.93, 108.78 1.81 M2.24 130.47 C37.14 90.32, 72.04 50.17, 113.77 2.17 M2.24 130.47 C36.15 91.46, 70.07 52.44, 113.77 2.17 M1.98 136.87 C41.37 91.55, 80.76 46.23, 119.41 1.78 M1.98 136.87 C35.11 98.76, 68.24 60.64, 119.41 1.78 M2.37 142.51 C28.32 112.66, 54.27 82.81, 124.4 2.14 M2.37 142.51 C43.76 94.9, 85.15 47.29, 124.4 2.14 M2.77 148.16 C41.25 103.88, 79.74 59.61, 130.04 1.74 M2.77 148.16 C45.05 99.52, 87.33 50.88, 130.04 1.74 M1.85 155.31 C36.29 115.69, 70.74 76.06, 135.03 2.1 M1.85 155.31 C49.52 100.47, 97.19 45.63, 135.03 2.1 M2.24 160.95 C55.5 99.69, 108.75 38.43, 140.67 1.71 M2.24 160.95 C50.66 105.26, 99.07 49.57, 140.67 1.71 M4.61 164.33 C45 117.86, 85.4 71.38, 145.66 2.07 M4.61 164.33 C57.42 103.58, 110.23 42.82, 145.66 2.07 M6.97 167.71 C39.3 130.51, 71.63 93.32, 150.65 2.43 M6.97 167.71 C39.9 129.82, 72.84 91.94, 150.65 2.43 M9.33 171.09 C63.8 108.43, 118.26 45.77, 156.29 2.03 M9.33 171.09 C59.09 113.85, 108.85 56.6, 156.29 2.03 M12.35 173.71 C65.22 112.89, 118.09 52.07, 161.28 2.39 M12.35 173.71 C64.64 113.56, 116.94 53.4, 161.28 2.39 M15.37 176.34 C64.62 119.68, 113.88 63.02, 166.92 2 M15.37 176.34 C51.19 135.12, 87.02 93.91, 166.92 2 M19.7 177.45 C64.66 125.73, 109.62 74, 171.91 2.36 M19.7 177.45 C62.6 128.1, 105.49 78.76, 171.91 2.36 M24.69 177.81 C55.61 142.24, 86.53 106.67, 177.55 1.96 M24.69 177.81 C84.25 109.29, 143.81 40.78, 177.55 1.96 M29.67 178.17 C68.8 133.16, 107.93 88.15, 182.54 2.32 M29.67 178.17 C71.5 130.05, 113.33 81.93, 182.54 2.32 M34 179.29 C94.79 109.36, 155.58 39.43, 188.18 1.93 M34 179.29 C88.91 116.12, 143.82 52.96, 188.18 1.93 M38.99 179.65 C75.31 137.87, 111.63 96.09, 193.17 2.29 M38.99 179.65 C95.24 114.94, 151.48 50.24, 193.17 2.29 M43.98 180.01 C95.36 120.89, 146.75 61.78, 198.81 1.9 M43.98 180.01 C79.53 139.11, 115.08 98.21, 198.81 1.9 M49.62 179.61 C99.28 122.48, 148.94 65.36, 203.8 2.26 M49.62 179.61 C92.72 130.03, 135.82 80.45, 203.8 2.26 M54.61 179.97 C114.23 111.39, 173.84 42.81, 209.44 1.86 M54.61 179.97 C107.21 119.46, 159.81 58.96, 209.44 1.86 M60.25 179.58 C120.78 109.95, 181.3 40.32, 214.43 2.22 M60.25 179.58 C110.82 121.4, 161.39 63.23, 214.43 2.22 M65.24 179.94 C121.41 115.32, 177.58 50.71, 220.07 1.83 M65.24 179.94 C119.75 117.23, 174.26 54.53, 220.07 1.83 M70.88 179.54 C103.72 141.76, 136.57 103.98, 225.06 2.19 M70.88 179.54 C118.09 125.24, 165.3 70.93, 225.06 2.19 M75.87 179.9 C108.87 141.94, 141.87 103.98, 230.7 1.79 M75.87 179.9 C132.87 114.33, 189.88 48.75, 230.7 1.79 M81.51 179.51 C133.7 119.47, 185.9 59.43, 235.69 2.15 M81.51 179.51 C142.59 109.25, 203.67 38.98, 235.69 2.15 M86.5 179.87 C136.55 122.29, 186.6 64.71, 241.33 1.76 M86.5 179.87 C121.42 139.7, 156.34 99.52, 241.33 1.76 M92.14 179.47 C125.44 141.17, 158.74 102.86, 248.28 -0.15 M92.14 179.47 C133.65 131.72, 175.16 83.97, 248.28 -0.15 M97.13 179.83 C131.38 140.43, 165.64 101.03, 253.27 0.21 M97.13 179.83 C159.21 108.42, 221.29 37.01, 253.27 0.21 M102.77 179.44 C144.47 131.47, 186.17 83.5, 256.95 2.08 M102.77 179.44 C159.68 113.97, 216.59 48.51, 256.95 2.08 M107.76 179.8 C148.88 132.5, 189.99 85.2, 261.93 2.44 M107.76 179.8 C153.03 127.72, 198.3 75.65, 261.93 2.44 M113.4 179.4 C148.93 138.53, 184.46 97.66, 266.26 3.56 M113.4 179.4 C150.98 136.18, 188.56 92.95, 266.26 3.56 M118.39 179.77 C174.15 115.62, 229.92 51.47, 269.28 6.18 M118.39 179.77 C172.56 117.45, 226.72 55.14, 269.28 6.18 M124.03 179.37 C155.24 143.47, 186.45 107.56, 272.3 8.81 M124.03 179.37 C156.9 141.56, 189.77 103.75, 272.3 8.81 M129.02 179.73 C168.72 134.06, 208.42 88.39, 275.32 11.43 M129.02 179.73 C183.86 116.64, 238.7 53.56, 275.32 11.43 M134.66 179.34 C163.99 145.6, 193.32 111.86, 277.68 14.81 M134.66 179.34 C178.77 128.59, 222.88 77.85, 277.68 14.81 M139.65 179.7 C175.22 138.78, 210.79 97.86, 279.39 18.94 M139.65 179.7 C189.73 122.08, 239.82 64.47, 279.39 18.94 M145.29 179.3 C172.95 147.48, 200.61 115.67, 279.78 24.59 M145.29 179.3 C186.13 132.32, 226.97 85.34, 279.78 24.59 M150.28 179.66 C181.53 143.71, 212.78 107.76, 280.18 30.23 M150.28 179.66 C184.41 140.4, 218.55 101.13, 280.18 30.23 M155.27 180.02 C192.27 137.45, 229.28 94.88, 282.54 33.61 M155.27 180.02 C192.3 137.42, 229.33 94.82, 282.54 33.61 M160.91 179.63 C196.12 139.12, 231.33 98.62, 282.28 40.01 M160.91 179.63 C194.52 140.96, 228.14 102.29, 282.28 40.01 M165.9 179.99 C203.99 136.17, 242.08 92.35, 282.02 46.4 M165.9 179.99 C205.36 134.59, 244.82 89.19, 282.02 46.4 M171.54 179.59 C205.1 140.98, 238.66 102.38, 282.41 52.05 M171.54 179.59 C207.68 138.02, 243.82 96.45, 282.41 52.05 M176.53 179.95 C205.48 146.65, 234.43 113.35, 282.15 58.44 M176.53 179.95 C198.26 154.95, 219.99 129.96, 282.15 58.44 M182.17 179.56 C214 142.94, 245.83 106.33, 282.55 64.09 M182.17 179.56 C219.37 136.76, 256.58 93.96, 282.55 64.09 M187.16 179.92 C213.29 149.86, 239.42 119.8, 282.29 70.49 M187.16 179.92 C209.04 154.75, 230.92 129.57, 282.29 70.49 M192.8 179.52 C211.63 157.86, 230.46 136.21, 282.02 76.88 M192.8 179.52 C220.27 147.92, 247.75 116.31, 282.02 76.88 M197.79 179.88 C228.64 144.39, 259.5 108.89, 282.42 82.53 M197.79 179.88 C218.1 156.51, 238.42 133.14, 282.42 82.53 M203.43 179.49 C219.28 161.26, 235.13 143.03, 282.16 88.92 M203.43 179.49 C224.73 154.99, 246.03 130.48, 282.16 88.92 M208.42 179.85 C235.67 148.49, 262.93 117.14, 282.55 94.57 M208.42 179.85 C226.88 158.61, 245.34 137.37, 282.55 94.57 M214.06 179.45 C237.52 152.47, 260.98 125.48, 282.29 100.96 M214.06 179.45 C236.39 153.77, 258.72 128.08, 282.29 100.96 M219.05 179.81 C244.04 151.06, 269.04 122.31, 282.03 107.36 M219.05 179.81 C241.48 154.01, 263.92 128.2, 282.03 107.36 M224.69 179.42 C238.18 163.91, 251.66 148.39, 282.42 113.01 M224.69 179.42 C246.79 154, 268.88 128.58, 282.42 113.01 M229.68 179.78 C248.26 158.4, 266.85 137.02, 282.16 119.4 M229.68 179.78 C242.62 164.89, 255.57 149.99, 282.16 119.4 M235.32 179.39 C249.71 162.84, 264.09 146.29, 282.56 125.05 M235.32 179.39 C248.43 164.3, 261.54 149.22, 282.56 125.05 M240.31 179.75 C249.98 168.61, 259.66 157.48, 282.3 131.44 M240.31 179.75 C252.55 165.67, 264.79 151.58, 282.3 131.44 M245.95 179.35 C257.85 165.66, 269.75 151.97, 282.03 137.84 M245.95 179.35 C256.35 167.39, 266.75 155.42, 282.03 137.84 M250.28 180.47 C256.36 173.47, 262.45 166.47, 279.8 146.5 M250.28 180.47 C257.6 172.05, 264.91 163.64, 279.8 146.5 M257.24 178.56 C264.41 170.31, 271.58 162.07, 279.54 152.9 M257.24 178.56 C262.31 172.73, 267.38 166.9, 279.54 152.9 M263.54 177.41 C268.59 171.6, 273.64 165.79, 277.97 160.81 M263.54 177.41 C268.71 171.46, 273.88 165.51, 277.97 160.81" stroke="#ced4da" stroke-width="0.5" fill="none"></path><path d="M32 0 M32 0 C81.82 0, 131.64 0, 248 0 M32 0 C106.11 0, 180.23 0, 248 0 M248 0 C269.33 0, 280 10.67, 280 32 M248 0 C269.33 0, 280 10.67, 280 32 M280 32 C280 66.91, 280 101.83, 280 146.18 M280 32 C280 77.04, 280 122.08, 280 146.18 M280 146.18 C280 167.52, 269.33 178.18, 248 178.18 M280 146.18 C280 167.52, 269.33 178.18, 248 178.18 M248 178.18 C167.95 178.18, 87.9 178.18, 32 178.18 M248 178.18 C171.5 178.18, 95.01 178.18, 32 178.18 M32 178.18 C10.67 178.18, 0 167.52, 0 146.18 M32 178.18 C10.67 178.18, 0 167.52, 0 146.18 M0 146.18 C0 121.73, 0 97.27, 0 32 M0 146.18 C0 111.11, 0 76.05, 0 32 M0 32 C0 10.67, 10.67 0, 32 0 M0 32 C0 10.67, 10.67 0, 32 0" stroke="#000000" stroke-width="1" fill="none"></path></g><g transform="translate(481.818181818182 77.34090909091174) rotate(0 40 21.5)"><text x="40" y="31" font-family="Virgil, Segoe UI Emoji" font-size="36px" fill="#000000" text-anchor="middle" style="white-space: pre;" direction="ltr">UAT</text></g><g stroke-linecap="round" transform="translate(760.909090909091 14.54545454545405) rotate(0 140 89.09090909090901)"><path d="M7.86 8.16 C7.86 8.16, 7.86 8.16, 7.86 8.16 M7.86 8.16 C7.86 8.16, 7.86 8.16, 7.86 8.16 M3.66 19.09 C8.37 13.67, 13.07 8.26, 18.1 2.48 M3.66 19.09 C8.34 13.7, 13.02 8.32, 18.1 2.48 M2.75 26.24 C8.68 19.41, 14.61 12.59, 25.05 0.58 M2.75 26.24 C11.6 16.05, 20.46 5.86, 25.05 0.58 M2.48 32.64 C10.91 22.94, 19.34 13.24, 30.7 0.18 M2.48 32.64 C11.62 22.13, 20.76 11.62, 30.7 0.18 M2.88 38.28 C14.22 25.23, 25.57 12.18, 34.37 2.05 M2.88 38.28 C12.74 26.93, 22.61 15.58, 34.37 2.05 M2.62 44.68 C15.39 29.98, 28.17 15.29, 39.36 2.41 M2.62 44.68 C13.58 32.07, 24.53 19.46, 39.36 2.41 M2.36 51.07 C18.29 32.75, 34.21 14.43, 45 2.02 M2.36 51.07 C12.29 39.65, 22.22 28.23, 45 2.02 M2.75 56.72 C17.79 39.42, 32.82 22.13, 49.99 2.38 M2.75 56.72 C16.4 41.02, 30.04 25.32, 49.99 2.38 M2.49 63.11 C17.56 45.78, 32.63 28.45, 55.63 1.98 M2.49 63.11 C21.24 41.54, 40 19.97, 55.63 1.98 M2.23 69.51 C22.39 46.31, 42.56 23.12, 60.62 2.34 M2.23 69.51 C15.25 54.53, 28.28 39.55, 60.62 2.34 M2.62 75.16 C15.8 59.99, 28.99 44.83, 66.26 1.95 M2.62 75.16 C22.1 52.75, 41.58 30.34, 66.26 1.95 M2.36 81.55 C26.67 53.59, 50.97 25.63, 71.25 2.31 M2.36 81.55 C17.1 64.59, 31.85 47.63, 71.25 2.31 M2.1 87.95 C24.55 62.13, 47 36.3, 76.89 1.91 M2.1 87.95 C21.63 65.48, 41.16 43.01, 76.89 1.91 M2.49 93.59 C30.56 61.31, 58.63 29.02, 81.88 2.27 M2.49 93.59 C23.21 69.76, 43.92 45.93, 81.88 2.27 M2.23 99.99 C24.2 74.72, 46.16 49.46, 87.52 1.88 M2.23 99.99 C21.24 78.13, 40.24 56.27, 87.52 1.88 M2.63 105.64 C34.05 69.49, 65.46 33.35, 92.51 2.24 M2.63 105.64 C34 69.55, 65.36 33.46, 92.51 2.24 M2.37 112.03 C22.8 88.53, 43.23 65.02, 98.15 1.85 M2.37 112.03 C34.13 75.5, 65.89 38.96, 98.15 1.85 M2.1 118.43 C25.53 91.48, 48.95 64.54, 103.14 2.21 M2.1 118.43 C37.39 77.84, 72.67 37.25, 103.14 2.21 M2.5 124.07 C28.07 94.66, 53.64 65.25, 108.78 1.81 M2.5 124.07 C41.2 79.56, 79.89 35.04, 108.78 1.81 M2.24 130.47 C33.53 94.48, 64.81 58.49, 113.77 2.17 M2.24 130.47 C37.78 89.59, 73.32 48.7, 113.77 2.17 M1.98 136.87 C31.5 102.9, 61.03 68.94, 119.41 1.78 M1.98 136.87 C29.31 105.43, 56.64 73.98, 119.41 1.78 M2.37 142.51 C34.68 105.34, 66.99 68.18, 124.4 2.14 M2.37 142.51 C26.81 114.4, 51.24 86.3, 124.4 2.14 M2.77 148.16 C40.57 104.66, 78.38 61.17, 130.04 1.74 M2.77 148.16 C39.17 106.28, 75.57 64.41, 130.04 1.74 M1.85 155.31 C47.5 102.79, 93.16 50.27, 135.03 2.1 M1.85 155.31 C44.84 105.85, 87.84 56.39, 135.03 2.1 M2.24 160.95 C39.31 118.31, 76.37 75.68, 140.67 1.71 M2.24 160.95 C31.06 127.8, 59.88 94.64, 140.67 1.71 M4.61 164.33 C55.66 105.6, 106.71 46.88, 145.66 2.07 M4.61 164.33 C47.1 115.45, 89.59 66.57, 145.66 2.07 M6.97 167.71 C63.41 102.78, 119.85 37.86, 150.65 2.43 M6.97 167.71 C52.89 114.88, 98.81 62.06, 150.65 2.43 M9.33 171.09 C62.01 110.49, 114.69 49.88, 156.29 2.03 M9.33 171.09 C58.75 114.24, 108.16 57.39, 156.29 2.03 M12.35 173.71 C63.08 115.35, 113.81 57, 161.28 2.39 M12.35 173.71 C53.52 126.35, 94.69 78.99, 161.28 2.39 M15.37 176.34 C54.45 131.38, 93.53 86.42, 166.92 2 M15.37 176.34 C63.04 121.5, 110.71 66.65, 166.92 2 M19.7 177.45 C68.2 121.65, 116.71 65.86, 171.91 2.36 M19.7 177.45 C76.16 112.5, 132.62 47.56, 171.91 2.36 M24.69 177.81 C81.95 111.94, 139.21 46.07, 177.55 1.96 M24.69 177.81 C71.89 123.51, 119.09 69.21, 177.55 1.96 M29.67 178.17 C86.75 112.51, 143.83 46.85, 182.54 2.32 M29.67 178.17 C65 137.53, 100.33 96.89, 182.54 2.32 M34 179.29 C82.13 123.92, 130.27 68.55, 188.18 1.93 M34 179.29 C76.79 130.07, 119.57 80.85, 188.18 1.93 M38.99 179.65 C83.77 128.14, 128.55 76.63, 193.17 2.29 M38.99 179.65 C88.49 122.7, 137.99 65.76, 193.17 2.29 M43.98 180.01 C84.74 133.12, 125.49 86.24, 198.81 1.9 M43.98 180.01 C100.53 114.96, 157.07 49.91, 198.81 1.9 M49.62 179.61 C95.01 127.4, 140.39 75.19, 203.8 2.26 M49.62 179.61 C86.73 136.92, 123.85 94.23, 203.8 2.26 M54.61 179.97 C102.52 124.86, 150.42 69.75, 209.44 1.86 M54.61 179.97 C85.94 143.93, 117.28 107.88, 209.44 1.86 M60.25 179.58 C114.05 117.69, 167.84 55.81, 214.43 2.22 M60.25 179.58 C95.1 139.49, 129.95 99.4, 214.43 2.22 M65.24 179.94 C115.01 122.68, 164.79 65.42, 220.07 1.83 M65.24 179.94 C97.03 143.36, 128.83 106.79, 220.07 1.83 M70.88 179.54 C110.48 133.99, 150.08 88.43, 225.06 2.19 M70.88 179.54 C109.24 135.41, 147.6 91.28, 225.06 2.19 M75.87 179.9 C116 133.74, 156.12 87.58, 230.7 1.79 M75.87 179.9 C118.68 130.66, 161.48 81.42, 230.7 1.79 M81.51 179.51 C137.01 115.66, 192.51 51.82, 235.69 2.15 M81.51 179.51 C130.37 123.31, 179.22 67.1, 235.69 2.15 M86.5 179.87 C128.52 131.53, 170.53 83.2, 241.33 1.76 M86.5 179.87 C133.57 125.72, 180.63 71.58, 241.33 1.76 M92.14 179.47 C129.49 136.51, 166.83 93.55, 248.28 -0.15 M92.14 179.47 C150.53 112.3, 208.93 45.13, 248.28 -0.15 M97.13 179.83 C158.96 108.71, 220.79 37.58, 253.27 0.21 M97.13 179.83 C138.05 132.75, 178.98 85.68, 253.27 0.21 M102.77 179.44 C135.83 141.42, 168.88 103.39, 256.95 2.08 M102.77 179.44 C164.4 108.55, 226.02 37.66, 256.95 2.08 M107.76 179.8 C147.85 133.69, 187.93 87.57, 261.93 2.44 M107.76 179.8 C155.7 124.65, 203.64 69.5, 261.93 2.44 M113.4 179.4 C150.8 136.38, 188.2 93.36, 266.26 3.56 M113.4 179.4 C160.75 124.94, 208.09 70.48, 266.26 3.56 M118.39 179.77 C175.65 113.9, 232.9 48.03, 269.28 6.18 M118.39 179.77 C163.14 128.28, 207.89 76.8, 269.28 6.18 M124.03 179.37 C157.84 140.48, 191.65 101.59, 272.3 8.81 M124.03 179.37 C161.92 135.78, 199.81 92.2, 272.3 8.81 M129.02 179.73 C166.98 136.07, 204.93 92.4, 275.32 11.43 M129.02 179.73 C165.74 137.49, 202.47 95.24, 275.32 11.43 M134.66 179.34 C177.8 129.71, 220.93 80.09, 277.68 14.81 M134.66 179.34 C181.09 125.92, 227.52 72.51, 277.68 14.81 M139.65 179.7 C180.75 132.41, 221.85 85.13, 279.39 18.94 M139.65 179.7 C180.48 132.73, 221.31 85.76, 279.39 18.94 M145.29 179.3 C191.24 126.45, 237.19 73.59, 279.78 24.59 M145.29 179.3 C177.63 142.1, 209.96 104.91, 279.78 24.59 M150.28 179.66 C184.93 139.8, 219.58 99.94, 280.18 30.23 M150.28 179.66 C192.37 131.25, 234.45 82.83, 280.18 30.23 M155.27 180.02 C188.79 141.46, 222.3 102.9, 282.54 33.61 M155.27 180.02 C188.65 141.62, 222.03 103.22, 282.54 33.61 M160.91 179.63 C191.2 144.78, 221.5 109.93, 282.28 40.01 M160.91 179.63 C201.72 132.68, 242.53 85.73, 282.28 40.01 M165.9 179.99 C203.18 137.09, 240.47 94.2, 282.02 46.4 M165.9 179.99 C199.04 141.86, 232.19 103.73, 282.02 46.4 M171.54 179.59 C205.25 140.82, 238.96 102.04, 282.41 52.05 M171.54 179.59 C205.32 140.73, 239.11 101.86, 282.41 52.05 M176.53 179.95 C198.52 154.65, 220.52 129.35, 282.15 58.44 M176.53 179.95 C212.56 138.5, 248.6 97.04, 282.15 58.44 M182.17 179.56 C220.36 135.63, 258.54 91.7, 282.55 64.09 M182.17 179.56 C211.39 145.95, 240.6 112.34, 282.55 64.09 M187.16 179.92 C221.14 140.83, 255.12 101.74, 282.29 70.49 M187.16 179.92 C215.37 147.46, 243.59 115, 282.29 70.49 M192.8 179.52 C212.28 157.12, 231.75 134.71, 282.02 76.88 M192.8 179.52 C223.4 144.32, 254 109.12, 282.02 76.88 M197.79 179.88 C218.06 156.56, 238.33 133.24, 282.42 82.53 M197.79 179.88 C227.82 145.33, 257.86 110.78, 282.42 82.53 M203.43 179.49 C222.81 157.19, 242.19 134.9, 282.16 88.92 M203.43 179.49 C234.44 143.81, 265.46 108.14, 282.16 88.92 M208.42 179.85 C228.12 157.18, 247.83 134.51, 282.55 94.57 M208.42 179.85 C234.74 149.57, 261.06 119.29, 282.55 94.57 M214.06 179.45 C233.28 157.35, 252.49 135.24, 282.29 100.96 M214.06 179.45 C238.86 150.92, 263.67 122.39, 282.29 100.96 M219.05 179.81 C237.04 159.12, 255.02 138.43, 282.03 107.36 M219.05 179.81 C236.18 160.11, 253.31 140.4, 282.03 107.36 M224.69 179.42 C238.05 164.05, 251.41 148.68, 282.42 113.01 M224.69 179.42 C239.54 162.34, 254.38 145.26, 282.42 113.01 M229.68 179.78 C244.78 162.41, 259.88 145.04, 282.16 119.4 M229.68 179.78 C246.3 160.66, 262.92 141.53, 282.16 119.4 M235.32 179.39 C253.8 158.13, 272.28 136.87, 282.56 125.05 M235.32 179.39 C247.9 164.92, 260.47 150.45, 282.56 125.05 M240.31 179.75 C252.89 165.27, 265.48 150.79, 282.3 131.44 M240.31 179.75 C250.22 168.34, 260.13 156.94, 282.3 131.44 M245.95 179.35 C258.43 165, 270.9 150.65, 282.03 137.84 M245.95 179.35 C255.62 168.22, 265.3 157.1, 282.03 137.84 M250.28 180.47 C258.8 170.66, 267.33 160.86, 279.8 146.5 M250.28 180.47 C256.56 173.24, 262.84 166.01, 279.8 146.5 M257.24 178.56 C263.24 171.66, 269.23 164.76, 279.54 152.9 M257.24 178.56 C264.51 170.2, 271.78 161.84, 279.54 152.9 M263.54 177.41 C267.29 173.09, 271.05 168.77, 277.97 160.81 M263.54 177.41 C268.81 171.34, 274.09 165.27, 277.97 160.81" stroke="#ced4da" stroke-width="0.5" fill="none"></path><path d="M32 0 M32 0 C80.31 0, 128.62 0, 248 0 M32 0 C116.01 0, 200.02 0, 248 0 M248 0 C269.33 0, 280 10.67, 280 32 M248 0 C269.33 0, 280 10.67, 280 32 M280 32 C280 74.29, 280 116.59, 280 146.18 M280 32 C280 60.51, 280 89.03, 280 146.18 M280 146.18 C280 167.52, 269.33 178.18, 248 178.18 M280 146.18 C280 167.52, 269.33 178.18, 248 178.18 M248 178.18 C182.13 178.18, 116.27 178.18, 32 178.18 M248 178.18 C194.23 178.18, 140.46 178.18, 32 178.18 M32 178.18 C10.67 178.18, 0 167.52, 0 146.18 M32 178.18 C10.67 178.18, 0 167.52, 0 146.18 M0 146.18 C0 110.84, 0 75.49, 0 32 M0 146.18 C0 110.66, 0 75.15, 0 32 M0 32 C0 10.67, 10.67 0, 32 0 M0 32 C0 10.67, 10.67 0, 32 0" stroke="#000000" stroke-width="1" fill="none"></path></g><g transform="translate(859.909090909091 81.88636363635851) rotate(0 41 21.5)"><text x="41" y="31" font-family="Virgil, Segoe UI Emoji" font-size="36px" fill="#000000" text-anchor="middle" style="white-space: pre;" direction="ltr">Prod</text></g><g stroke-linecap="round"><g transform="translate(300 103.43644693498572) rotate(0 35.909090909090764 -0.7034784624638633)"><path d="M0 0 C11.97 -0.23, 59.85 -1.17, 71.82 -1.41 M0 0 C11.97 -0.23, 59.85 -1.17, 71.82 -1.41" stroke="#000000" stroke-width="1" fill="none"></path></g><g transform="translate(300 103.43644693498572) rotate(0 35.909090909090764 -0.7034784624638633)"><path d="M43.83 9.4 C50.78 6.72, 57.72 4.04, 71.82 -1.41 M43.83 9.4 C50.17 6.96, 56.5 4.51, 71.82 -1.41" stroke="#000000" stroke-width="1" fill="none"></path></g><g transform="translate(300 103.43644693498572) rotate(0 35.909090909090764 -0.7034784624638633)"><path d="M43.43 -11.11 C50.47 -8.71, 57.51 -6.3, 71.82 -1.41 M43.43 -11.11 C49.86 -8.92, 56.28 -6.72, 71.82 -1.41" stroke="#000000" stroke-width="1" fill="none"></path></g></g><mask></mask><g stroke-linecap="round"><g transform="translate(671.8181818181811 101.00822488016092) rotate(0 37.72727272727275 1.2084917828569814)"><path d="M0 0 C12.58 0.4, 62.88 2.01, 75.45 2.42 M0 0 C12.58 0.4, 62.88 2.01, 75.45 2.42" stroke="#000000" stroke-width="1" fill="none"></path></g><g transform="translate(671.8181818181811 101.00822488016092) rotate(0 37.72727272727275 1.2084917828569814)"><path d="M46.95 11.77 C53.95 9.47, 60.94 7.18, 75.45 2.42 M46.95 11.77 C53.5 9.62, 60.05 7.47, 75.45 2.42" stroke="#000000" stroke-width="1" fill="none"></path></g><g transform="translate(671.8181818181811 101.00822488016092) rotate(0 37.72727272727275 1.2084917828569814)"><path d="M47.61 -8.74 C54.44 -6, 61.28 -3.26, 75.45 2.42 M47.61 -8.74 C54.01 -6.18, 60.41 -3.61, 75.45 2.42" stroke="#000000" stroke-width="1" fill="none"></path></g></g><mask></mask><g transform="translate(309.59090909090855 164.2727272727243) rotate(0 24.5 13)"><text x="24.5" y="18" font-family="Virgil, Segoe UI Emoji" font-size="20px" fill="#000000" text-anchor="middle" style="white-space: pre;" direction="ltr">Auto</text></g><g transform="translate(685.045454545455 164.2727272727243) rotate(0 24.5 13)"><text x="24.5" y="18" font-family="Virgil, Segoe UI Emoji" font-size="20px" fill="#000000" text-anchor="middle" style="white-space: pre;" direction="ltr">Auto</text></g></svg>